solid Untitled-63950de1
facet normal 2.158140152850805e-16 -1.0 4.193553533822504e-19
  outer loop
    vertex 90.64954376220702 39.012416839599624 -1.9999999999999998
    vertex 80.39954376220703 39.012416839599624 10.666666666666666
    vertex 25.64953994750979 39.01241683959962 -1.9999999999999998
  endloop
endfacet
facet normal 2.158140152850805e-16 -1.0 4.193553533822504e-19
  outer loop
    vertex 80.39954376220703 39.012416839599624 10.666666666666666
    vertex 90.64954376220702 39.012416839599624 -1.9999999999999998
    vertex 90.64954376220702 39.012416839599624 18.0
  endloop
endfacet
facet normal 2.158140152850805e-16 -1.0 4.193553533822504e-19
  outer loop
    vertex 80.39954376220703 39.012416839599624 10.666666666666666
    vertex 90.64954376220702 39.012416839599624 18.0
    vertex 84.52454376220703 39.012416839599624 17.999999999999996
  endloop
endfacet
facet normal 2.158140152850805e-16 -1.0 4.193553533822504e-19
  outer loop
    vertex 80.39954376220703 39.012416839599624 10.666666666666666
    vertex 25.64953994750979 39.01241683959962 18.000000000000007
    vertex 25.64953994750979 39.01241683959962 -1.9999999999999998
  endloop
endfacet
facet normal 2.158140152850805e-16 -1.0 4.193553533822504e-19
  outer loop
    vertex 25.64953994750979 39.01241683959962 18.000000000000007
    vertex 80.39954376220703 39.012416839599624 10.666666666666666
    vertex 72.14954376220703 39.01241683959962 18.0
  endloop
endfacet
facet normal -0.8715755371245495 1.9572689520542135e-16 0.4902612396325588
  outer loop
    vertex 84.52454376220703 66.11241912841794 18.000000000000004
    vertex 80.39954376220703 63.21241912841799 10.666666666666671
    vertex 84.52454376220703 63.21241912841799 18.000000000000004
  endloop
endfacet
facet normal -0.8715755371245495 1.9572689520542135e-16 0.4902612396325588
  outer loop
    vertex 80.39954376220703 63.21241912841799 10.666666666666671
    vertex 84.52454376220703 66.11241912841794 18.000000000000004
    vertex 80.39954376220703 66.11241912841794 10.66666666666667
  endloop
endfacet
facet normal 0.0 0.0 -1.0
  outer loop
    vertex 61.569541931152344 42.9124168395996 5.260000228881835
    vertex 55.56954193115233 41.912416839599615 5.260000228881835
    vertex 55.56954193115233 42.912416839599615 5.260000228881835
  endloop
endfacet
facet normal 0.0 0.0 -1.0
  outer loop
    vertex 55.56954193115233 41.912416839599615 5.260000228881835
    vertex 61.569541931152344 42.9124168395996 5.260000228881835
    vertex 61.569541931152344 41.9124168395996 5.260000228881835
  endloop
endfacet
facet normal 1.0 0.0 0.0
  outer loop
    vertex 62.569541931152344 42.9124168395996 6.260000228881836
    vertex 62.569541931152344 41.912416839599615 15.999999999999998
    vertex 62.569541931152344 41.9124168395996 6.260000228881836
  endloop
endfacet
facet normal 1.0 0.0 0.0
  outer loop
    vertex 62.569541931152344 41.912416839599615 15.999999999999998
    vertex 62.569541931152344 42.9124168395996 6.260000228881836
    vertex 62.569541931152344 42.912416839599615 15.999999999999998
  endloop
endfacet
facet normal -0.8715755371245495 2.609691936072285e-16 0.4902612396325588
  outer loop
    vertex 84.52454376220703 41.91241683959957 17.999999999999996
    vertex 80.39954376220703 39.012416839599624 10.666666666666666
    vertex 84.52454376220703 39.012416839599624 17.999999999999996
  endloop
endfacet
facet normal -0.8715755371245495 2.609691936072285e-16 0.4902612396325588
  outer loop
    vertex 80.39954376220703 39.012416839599624 10.666666666666666
    vertex 84.52454376220703 41.91241683959957 17.999999999999996
    vertex 80.39954376220703 41.91241683959957 10.666666666666663
  endloop
endfacet
facet normal 1.0 0.0 0.0
  outer loop
    vertex 62.569541931152344 63.21241912841796 6.260000228881836
    vertex 62.569541931152344 62.21241912841797 15.999999999999998
    vertex 62.569541931152344 62.21241912841797 6.260000228881836
  endloop
endfacet
facet normal 1.0 0.0 0.0
  outer loop
    vertex 62.569541931152344 62.21241912841797 15.999999999999998
    vertex 62.569541931152344 63.21241912841796 6.260000228881836
    vertex 62.569541931152344 63.21241912841797 15.999999999999998
  endloop
endfacet
facet normal 0.0 0.0 -1.0
  outer loop
    vertex 61.569541931152344 63.21241912841796 5.260000228881835
    vertex 55.56954193115233 62.21241912841797 5.260000228881835
    vertex 55.56954193115233 63.21241912841796 5.260000228881835
  endloop
endfacet
facet normal 0.0 0.0 -1.0
  outer loop
    vertex 55.56954193115233 62.21241912841797 5.260000228881835
    vertex 61.569541931152344 63.21241912841796 5.260000228881835
    vertex 61.569541931152344 62.21241912841797 5.260000228881835
  endloop
endfacet
facet normal -1.0 0.0 0.0
  outer loop
    vertex 54.56954193115234 63.21241912841797 15.999999999999998
    vertex 54.56954193115234 62.21241912841797 6.260000228881836
    vertex 54.56954193115234 62.21241912841797 15.999999999999998
  endloop
endfacet
facet normal -1.0 0.0 0.0
  outer loop
    vertex 54.56954193115234 62.21241912841797 6.260000228881836
    vertex 54.56954193115234 63.21241912841797 15.999999999999998
    vertex 54.56954193115234 63.21241912841796 6.260000228881836
  endloop
endfacet
facet normal 1.0 0.0 0.0
  outer loop
    vertex 67.64954376220703 41.912416839599615 15.999999999999993
    vertex 67.64954376220703 63.21241912841797 18.0
    vertex 67.64954376220703 41.9124168395996 18.0
  endloop
endfacet
facet normal 1.0 0.0 0.0
  outer loop
    vertex 67.64954376220703 63.21241912841797 18.0
    vertex 67.64954376220703 41.912416839599615 15.999999999999993
    vertex 67.64954376220703 63.21241912841799 15.999999999999991
  endloop
endfacet
facet normal 2.513998660403346e-17 -4.693076580790244e-17 -1.0
  outer loop
    vertex 67.64954376220703 63.21241912841799 15.999999999999991
    vertex 62.569541931152344 62.21241912841797 15.999999999999998
    vertex 62.569541931152344 63.21241912841797 15.999999999999998
  endloop
endfacet
facet normal 2.513998660403346e-17 -4.693076580790244e-17 -1.0
  outer loop
    vertex 62.569541931152344 62.21241912841797 15.999999999999998
    vertex 67.64954376220703 63.21241912841799 15.999999999999991
    vertex 62.569541931152344 42.912416839599615 15.999999999999998
  endloop
endfacet
facet normal 2.513998660403346e-17 -4.693076580790244e-17 -1.0
  outer loop
    vertex 62.569541931152344 42.912416839599615 15.999999999999998
    vertex 67.64954376220703 63.21241912841799 15.999999999999991
    vertex 62.569541931152344 41.912416839599615 15.999999999999998
  endloop
endfacet
facet normal 2.513998660403346e-17 -4.693076580790244e-17 -1.0
  outer loop
    vertex 62.569541931152344 41.912416839599615 15.999999999999998
    vertex 67.64954376220703 63.21241912841799 15.999999999999991
    vertex 67.64954376220703 41.912416839599615 15.999999999999993
  endloop
endfacet
facet normal 2.513998660403346e-17 -4.693076580790244e-17 -1.0
  outer loop
    vertex 62.569541931152344 62.21241912841797 15.999999999999998
    vertex 54.56954193115234 42.912416839599615 15.999999999999998
    vertex 54.56954193115234 62.21241912841797 15.999999999999998
  endloop
endfacet
facet normal 2.513998660403346e-17 -4.693076580790244e-17 -1.0
  outer loop
    vertex 54.56954193115234 42.912416839599615 15.999999999999998
    vertex 62.569541931152344 62.21241912841797 15.999999999999998
    vertex 62.569541931152344 42.912416839599615 15.999999999999998
  endloop
endfacet
facet normal 2.513998660403346e-17 -4.693076580790244e-17 -1.0
  outer loop
    vertex 54.56954193115234 63.21241912841797 15.999999999999998
    vertex 27.649539947509787 41.912416839599594 15.999999999999996
    vertex 27.649539947509787 63.21241912841797 15.999999999999993
  endloop
endfacet
facet normal 2.513998660403346e-17 -4.693076580790244e-17 -1.0
  outer loop
    vertex 27.649539947509787 41.912416839599594 15.999999999999996
    vertex 54.56954193115234 63.21241912841797 15.999999999999998
    vertex 54.56954193115234 41.912416839599615 15.999999999999998
  endloop
endfacet
facet normal 2.513998660403346e-17 -4.693076580790244e-17 -1.0
  outer loop
    vertex 54.56954193115234 41.912416839599615 15.999999999999998
    vertex 54.56954193115234 63.21241912841797 15.999999999999998
    vertex 54.56954193115234 62.21241912841797 15.999999999999998
  endloop
endfacet
facet normal 2.513998660403346e-17 -4.693076580790244e-17 -1.0
  outer loop
    vertex 54.56954193115234 41.912416839599615 15.999999999999998
    vertex 54.56954193115234 62.21241912841797 15.999999999999998
    vertex 54.56954193115234 42.912416839599615 15.999999999999998
  endloop
endfacet
facet normal -3.1262878720128345e-18 8.53856901274067e-18 -1.0
  outer loop
    vertex 90.64954376220702 66.11241912841795 -1.9999999999999998
    vertex 30.54953994750977 63.21241912841797 -1.9999999999999996
    vertex 30.54953994750977 66.11241912841795 -1.9999999999999991
  endloop
endfacet
facet normal -3.1262878720128345e-18 8.53856901274067e-18 -1.0
  outer loop
    vertex 30.54953994750977 63.21241912841797 -1.9999999999999996
    vertex 90.64954376220702 66.11241912841795 -1.9999999999999998
    vertex 85.64954376220703 63.21241912841797 -1.9999999999999996
  endloop
endfacet
facet normal -3.1262878720128345e-18 8.53856901274067e-18 -1.0
  outer loop
    vertex 85.64954376220703 63.21241912841797 -1.9999999999999996
    vertex 90.64954376220702 66.11241912841795 -1.9999999999999998
    vertex 85.64954376220703 41.912416839599594 -1.9999999999999996
  endloop
endfacet
facet normal -3.1262878720128345e-18 8.53856901274067e-18 -1.0
  outer loop
    vertex 27.649539947509787 66.11241912841795 -1.9999999999999996
    vertex 25.64953994750979 39.01241683959962 -1.9999999999999998
    vertex 25.64953994750979 66.11241912841795 -1.9999999999999991
  endloop
endfacet
facet normal -3.1262878720128345e-18 8.53856901274067e-18 -1.0
  outer loop
    vertex 25.64953994750979 39.01241683959962 -1.9999999999999998
    vertex 27.649539947509787 66.11241912841795 -1.9999999999999996
    vertex 27.649539947509787 41.912416839599594 -1.9999999999999996
  endloop
endfacet
facet normal -3.1262878720128345e-18 8.53856901274067e-18 -1.0
  outer loop
    vertex 25.64953994750979 39.01241683959962 -1.9999999999999998
    vertex 27.649539947509787 41.912416839599594 -1.9999999999999996
    vertex 90.64954376220702 39.012416839599624 -1.9999999999999998
  endloop
endfacet
facet normal -3.1262878720128345e-18 8.53856901274067e-18 -1.0
  outer loop
    vertex 27.649539947509787 41.912416839599594 -1.9999999999999996
    vertex 27.649539947509787 66.11241912841795 -1.9999999999999996
    vertex 27.649539947509787 63.21241912841797 -1.9999999999999996
  endloop
endfacet
facet normal -3.1262878720128345e-18 8.53856901274067e-18 -1.0
  outer loop
    vertex 90.64954376220702 39.012416839599624 -1.9999999999999998
    vertex 27.649539947509787 41.912416839599594 -1.9999999999999996
    vertex 85.64954376220703 41.912416839599594 -1.9999999999999996
  endloop
endfacet
facet normal -3.1262878720128345e-18 8.53856901274067e-18 -1.0
  outer loop
    vertex 90.64954376220702 39.012416839599624 -1.9999999999999998
    vertex 85.64954376220703 41.912416839599594 -1.9999999999999996
    vertex 90.64954376220702 66.11241912841795 -1.9999999999999998
  endloop
endfacet
facet normal -1.0 0.0 0.0
  outer loop
    vertex 54.56954193115234 42.912416839599615 15.999999999999998
    vertex 54.56954193115234 41.912416839599615 6.260000228881836
    vertex 54.56954193115234 41.912416839599615 15.999999999999998
  endloop
endfacet
facet normal -1.0 0.0 0.0
  outer loop
    vertex 54.56954193115234 41.912416839599615 6.260000228881836
    vertex 54.56954193115234 42.912416839599615 15.999999999999998
    vertex 54.56954193115234 42.912416839599615 6.260000228881836
  endloop
endfacet
facet normal -1.0 0.0 0.0
  outer loop
    vertex 25.64953994750979 66.11241912841794 18.0
    vertex 25.64953994750979 39.01241683959962 -1.9999999999999998
    vertex 25.64953994750979 39.01241683959962 18.000000000000007
  endloop
endfacet
facet normal -1.0 0.0 0.0
  outer loop
    vertex 25.64953994750979 39.01241683959962 -1.9999999999999998
    vertex 25.64953994750979 66.11241912841794 18.0
    vertex 25.64953994750979 66.11241912841795 -1.9999999999999991
  endloop
endfacet
facet normal -2.5493278535178696e-17 1.0 4.756967116781917e-16
  outer loop
    vertex 25.64953994750979 66.11241912841795 -1.9999999999999991
    vertex 27.649539947509787 66.11241912841795 1.0000000000000002
    vertex 27.649539947509787 66.11241912841795 -1.9999999999999996
  endloop
endfacet
facet normal -2.5493278535178696e-17 1.0 4.756967116781917e-16
  outer loop
    vertex 27.649539947509787 66.11241912841795 1.0000000000000002
    vertex 25.64953994750979 66.11241912841795 -1.9999999999999991
    vertex 25.64953994750979 66.11241912841794 18.0
  endloop
endfacet
facet normal -2.5493278535178696e-17 1.0 4.756967116781917e-16
  outer loop
    vertex 27.649539947509787 66.11241912841795 1.0000000000000002
    vertex 25.64953994750979 66.11241912841794 18.0
    vertex 30.54953994750977 66.11241912841795 1.0000000000000007
  endloop
endfacet
facet normal -2.5493278535178696e-17 1.0 4.756967116781917e-16
  outer loop
    vertex 30.54953994750977 66.11241912841795 1.0000000000000007
    vertex 25.64953994750979 66.11241912841794 18.0
    vertex 80.39954376220703 66.11241912841794 10.66666666666667
  endloop
endfacet
facet normal -2.5493278535178696e-17 1.0 4.756967116781917e-16
  outer loop
    vertex 80.39954376220703 66.11241912841794 10.66666666666667
    vertex 25.64953994750979 66.11241912841794 18.0
    vertex 72.14954376220703 66.11241912841794 18.0
  endloop
endfacet
facet normal -2.5493278535178696e-17 1.0 4.756967116781917e-16
  outer loop
    vertex 30.54953994750977 66.11241912841795 -1.9999999999999991
    vertex 90.64954376220702 66.11241912841795 0.0
    vertex 90.64954376220702 66.11241912841795 -1.9999999999999998
  endloop
endfacet
facet normal -2.5493278535178696e-17 1.0 4.756967116781917e-16
  outer loop
    vertex 90.64954376220702 66.11241912841795 0.0
    vertex 30.54953994750977 66.11241912841795 -1.9999999999999991
    vertex 30.54953994750977 66.11241912841795 1.0000000000000007
  endloop
endfacet
facet normal -2.5493278535178696e-17 1.0 4.756967116781917e-16
  outer loop
    vertex 90.64954376220702 66.11241912841795 0.0
    vertex 30.54953994750977 66.11241912841795 1.0000000000000007
    vertex 80.39954376220703 66.11241912841794 10.66666666666667
  endloop
endfacet
facet normal -2.5493278535178696e-17 1.0 4.756967116781917e-16
  outer loop
    vertex 90.64954376220702 66.11241912841795 0.0
    vertex 80.39954376220703 66.11241912841794 10.66666666666667
    vertex 90.64954376220702 66.11241912841795 18.0
  endloop
endfacet
facet normal -2.5493278535178696e-17 1.0 4.756967116781917e-16
  outer loop
    vertex 90.64954376220702 66.11241912841795 18.0
    vertex 80.39954376220703 66.11241912841794 10.66666666666667
    vertex 84.52454376220703 66.11241912841794 18.000000000000004
  endloop
endfacet
facet normal 1.0 0.0 0.0
  outer loop
    vertex 90.64954376220702 66.11241912841795 -1.9999999999999998
    vertex 90.64954376220702 39.012416839599624 18.0
    vertex 90.64954376220702 39.012416839599624 -1.9999999999999998
  endloop
endfacet
facet normal 1.0 0.0 0.0
  outer loop
    vertex 90.64954376220702 39.012416839599624 18.0
    vertex 90.64954376220702 66.11241912841795 -1.9999999999999998
    vertex 90.64954376220702 66.11241912841795 18.0
  endloop
endfacet
facet normal 1.0 0.0 0.0
  outer loop
    vertex 90.64954376220702 66.11241912841795 18.0
    vertex 90.64954376220702 66.11241912841795 -1.9999999999999998
    vertex 90.64954376220702 66.11241912841795 0.0
  endloop
endfacet
facet normal -1.0 7.38723521356054e-33 -6.077513971008433e-17
  outer loop
    vertex 30.54953994750977 66.11241912841795 1.0000000000000007
    vertex 30.54953994750977 63.21241912841797 -1.9999999999999996
    vertex 30.54953994750977 63.21241912841797 1.0000000000000002
  endloop
endfacet
facet normal -1.0 7.38723521356054e-33 -6.077513971008433e-17
  outer loop
    vertex 30.54953994750977 63.21241912841797 -1.9999999999999996
    vertex 30.54953994750977 66.11241912841795 1.0000000000000007
    vertex 30.54953994750977 66.11241912841795 -1.9999999999999991
  endloop
endfacet
facet normal 1.0 0.0 6.077513971008433e-17
  outer loop
    vertex 27.649539947509787 66.11241912841795 -1.9999999999999996
    vertex 27.649539947509787 63.21241912841797 1.0000000000000002
    vertex 27.649539947509787 63.21241912841797 -1.9999999999999996
  endloop
endfacet
facet normal 1.0 0.0 6.077513971008433e-17
  outer loop
    vertex 27.649539947509787 63.21241912841797 1.0000000000000002
    vertex 27.649539947509787 66.11241912841795 -1.9999999999999996
    vertex 27.649539947509787 66.11241912841795 1.0000000000000002
  endloop
endfacet
facet normal 6.077513971008433e-17 6.077513971008435e-17 -1.0
  outer loop
    vertex 30.54953994750977 66.11241912841795 1.0000000000000007
    vertex 27.649539947509787 63.21241912841797 1.0000000000000002
    vertex 27.649539947509787 66.11241912841795 1.0000000000000002
  endloop
endfacet
facet normal 6.077513971008433e-17 6.077513971008435e-17 -1.0
  outer loop
    vertex 27.649539947509787 63.21241912841797 1.0000000000000002
    vertex 30.54953994750977 66.11241912841795 1.0000000000000007
    vertex 30.54953994750977 63.21241912841797 1.0000000000000002
  endloop
endfacet
facet normal -1.0 -0.0 -0.0
  outer loop
    vertex 85.64954376220703 63.21241912841797 0.0
    vertex 85.64954376220703 41.912416839599594 -1.9999999999999996
    vertex 85.64954376220703 41.912416839599594 0.0
  endloop
endfacet
facet normal -1.0 -0.0 -0.0
  outer loop
    vertex 85.64954376220703 41.912416839599594 -1.9999999999999996
    vertex 85.64954376220703 63.21241912841797 0.0
    vertex 85.64954376220703 63.21241912841797 -1.9999999999999996
  endloop
endfacet
facet normal 0.0 0.0 1.0
  outer loop
    vertex 88.64954376220702 41.912416839599594 0.0
    vertex 85.64954376220703 63.21241912841797 0.0
    vertex 85.64954376220703 41.912416839599594 0.0
  endloop
endfacet
facet normal 0.0 0.0 1.0
  outer loop
    vertex 85.64954376220703 63.21241912841797 0.0
    vertex 88.64954376220702 41.912416839599594 0.0
    vertex 88.64954376220702 63.21241912841797 0.0
  endloop
endfacet
facet normal 0.6643638388299198 4.788944343278173e-16 0.7474093186836598
  outer loop
    vertex 80.39954376220703 63.21241912841799 10.666666666666671
    vertex 72.14954376220703 66.11241912841794 18.0
    vertex 72.14954376220703 63.21241912841797 18.0
  endloop
endfacet
facet normal 0.6643638388299198 4.788944343278173e-16 0.7474093186836598
  outer loop
    vertex 72.14954376220703 66.11241912841794 18.0
    vertex 80.39954376220703 63.21241912841799 10.666666666666671
    vertex 80.39954376220703 66.11241912841794 10.66666666666667
  endloop
endfacet
facet normal -1.0 0.0 0.0
  outer loop
    vertex 88.64954376220702 63.212419128418006 18.000000000000004
    vertex 88.64954376220702 41.912416839599594 0.0
    vertex 88.64954376220702 41.91241683959959 17.999999999999996
  endloop
endfacet
facet normal -1.0 0.0 0.0
  outer loop
    vertex 88.64954376220702 41.912416839599594 0.0
    vertex 88.64954376220702 63.212419128418006 18.000000000000004
    vertex 88.64954376220702 63.21241912841797 0.0
  endloop
endfacet
facet normal 1.2203029780823535e-16 -1.7251984183644735e-16 1.0
  outer loop
    vertex 90.64954376220702 39.012416839599624 18.0
    vertex 84.52454376220703 41.91241683959957 17.999999999999996
    vertex 84.52454376220703 39.012416839599624 17.999999999999996
  endloop
endfacet
facet normal 1.2203029780823535e-16 -1.7251984183644735e-16 1.0
  outer loop
    vertex 84.52454376220703 41.91241683959957 17.999999999999996
    vertex 90.64954376220702 39.012416839599624 18.0
    vertex 88.64954376220702 41.91241683959959 17.999999999999996
  endloop
endfacet
facet normal 1.2203029780823535e-16 -1.7251984183644735e-16 1.0
  outer loop
    vertex 88.64954376220702 41.91241683959959 17.999999999999996
    vertex 90.64954376220702 39.012416839599624 18.0
    vertex 88.64954376220702 63.212419128418006 18.000000000000004
  endloop
endfacet
facet normal 1.2203029780823535e-16 -1.7251984183644735e-16 1.0
  outer loop
    vertex 88.64954376220702 63.212419128418006 18.000000000000004
    vertex 84.52454376220703 66.11241912841794 18.000000000000004
    vertex 84.52454376220703 63.21241912841799 18.000000000000004
  endloop
endfacet
facet normal 1.2203029780823535e-16 -1.7251984183644735e-16 1.0
  outer loop
    vertex 84.52454376220703 66.11241912841794 18.000000000000004
    vertex 88.64954376220702 63.212419128418006 18.000000000000004
    vertex 90.64954376220702 66.11241912841795 18.0
  endloop
endfacet
facet normal 1.2203029780823535e-16 -1.7251984183644735e-16 1.0
  outer loop
    vertex 90.64954376220702 66.11241912841795 18.0
    vertex 88.64954376220702 63.212419128418006 18.000000000000004
    vertex 90.64954376220702 39.012416839599624 18.0
  endloop
endfacet
facet normal 0.6643638388299201 4.420564009179855e-16 0.7474093186836595
  outer loop
    vertex 80.39954376220703 39.012416839599624 10.666666666666666
    vertex 72.14954376220703 41.9124168395996 18.0
    vertex 72.14954376220703 39.01241683959962 18.0
  endloop
endfacet
facet normal 0.6643638388299201 4.420564009179855e-16 0.7474093186836595
  outer loop
    vertex 72.14954376220703 41.9124168395996 18.0
    vertex 80.39954376220703 39.012416839599624 10.666666666666666
    vertex 80.39954376220703 41.91241683959957 10.666666666666663
  endloop
endfacet
facet normal 3.45496621398084e-16 1.0 -9.191438501058684e-19
  outer loop
    vertex 27.649539947509787 41.912416839599594 -1.9999999999999996
    vertex 55.56954193115233 41.912416839599615 5.260000228881835
    vertex 85.64954376220703 41.912416839599594 -1.9999999999999996
  endloop
endfacet
facet normal 3.45496621398084e-16 1.0 -9.191438501058684e-19
  outer loop
    vertex 55.56954193115233 41.912416839599615 5.260000228881835
    vertex 27.649539947509787 41.912416839599594 -1.9999999999999996
    vertex 27.649539947509787 41.912416839599594 15.999999999999996
  endloop
endfacet
facet normal 3.45496621398084e-16 1.0 -9.191438501058684e-19
  outer loop
    vertex 85.64954376220703 41.912416839599594 -1.9999999999999996
    vertex 55.56954193115233 41.912416839599615 5.260000228881835
    vertex 85.64954376220703 41.912416839599594 0.0
  endloop
endfacet
facet normal 3.45496621398084e-16 1.0 -9.191438501058684e-19
  outer loop
    vertex 85.64954376220703 41.912416839599594 0.0
    vertex 55.56954193115233 41.912416839599615 5.260000228881835
    vertex 88.64954376220702 41.912416839599594 0.0
  endloop
endfacet
facet normal 3.45496621398084e-16 1.0 -9.191438501058684e-19
  outer loop
    vertex 55.56954193115233 41.912416839599615 5.260000228881835
    vertex 27.649539947509787 41.912416839599594 15.999999999999996
    vertex 54.56954193115234 41.912416839599615 6.260000228881836
  endloop
endfacet
facet normal 3.45496621398084e-16 1.0 -9.191438501058684e-19
  outer loop
    vertex 54.56954193115234 41.912416839599615 6.260000228881836
    vertex 27.649539947509787 41.912416839599594 15.999999999999996
    vertex 54.56954193115234 41.912416839599615 15.999999999999998
  endloop
endfacet
facet normal 3.45496621398084e-16 1.0 -9.191438501058684e-19
  outer loop
    vertex 62.569541931152344 41.912416839599615 15.999999999999998
    vertex 80.39954376220703 41.91241683959957 10.666666666666663
    vertex 62.569541931152344 41.9124168395996 6.260000228881836
  endloop
endfacet
facet normal 3.45496621398084e-16 1.0 -9.191438501058684e-19
  outer loop
    vertex 80.39954376220703 41.91241683959957 10.666666666666663
    vertex 62.569541931152344 41.912416839599615 15.999999999999998
    vertex 67.64954376220703 41.912416839599615 15.999999999999993
  endloop
endfacet
facet normal 3.45496621398084e-16 1.0 -9.191438501058684e-19
  outer loop
    vertex 67.64954376220703 41.912416839599615 15.999999999999993
    vertex 72.14954376220703 41.9124168395996 18.0
    vertex 80.39954376220703 41.91241683959957 10.666666666666663
  endloop
endfacet
facet normal 3.45496621398084e-16 1.0 -9.191438501058684e-19
  outer loop
    vertex 72.14954376220703 41.9124168395996 18.0
    vertex 67.64954376220703 41.912416839599615 15.999999999999993
    vertex 67.64954376220703 41.9124168395996 18.0
  endloop
endfacet
facet normal 3.45496621398084e-16 1.0 -9.191438501058684e-19
  outer loop
    vertex 88.64954376220702 41.912416839599594 0.0
    vertex 80.39954376220703 41.91241683959957 10.666666666666663
    vertex 88.64954376220702 41.91241683959959 17.999999999999996
  endloop
endfacet
facet normal 3.45496621398084e-16 1.0 -9.191438501058684e-19
  outer loop
    vertex 80.39954376220703 41.91241683959957 10.666666666666663
    vertex 88.64954376220702 41.912416839599594 0.0
    vertex 61.569541931152344 41.9124168395996 5.260000228881835
  endloop
endfacet
facet normal 3.45496621398084e-16 1.0 -9.191438501058684e-19
  outer loop
    vertex 61.569541931152344 41.9124168395996 5.260000228881835
    vertex 88.64954376220702 41.912416839599594 0.0
    vertex 55.56954193115233 41.912416839599615 5.260000228881835
  endloop
endfacet
facet normal 3.45496621398084e-16 1.0 -9.191438501058684e-19
  outer loop
    vertex 80.39954376220703 41.91241683959957 10.666666666666663
    vertex 61.569541931152344 41.9124168395996 5.260000228881835
    vertex 62.569541931152344 41.9124168395996 6.260000228881836
  endloop
endfacet
facet normal 3.45496621398084e-16 1.0 -9.191438501058684e-19
  outer loop
    vertex 88.64954376220702 41.91241683959959 17.999999999999996
    vertex 80.39954376220703 41.91241683959957 10.666666666666663
    vertex 84.52454376220703 41.91241683959957 17.999999999999996
  endloop
endfacet
facet normal 9.549220833977185e-16 1.0 -5.786403852889099e-16
  outer loop
    vertex 54.56954193115234 42.912416839599615 6.260000228881836
    vertex 61.569541931152344 42.9124168395996 5.260000228881835
    vertex 55.56954193115233 42.912416839599615 5.260000228881835
  endloop
endfacet
facet normal 9.549220833977185e-16 1.0 -5.786403852889099e-16
  outer loop
    vertex 61.569541931152344 42.9124168395996 5.260000228881835
    vertex 54.56954193115234 42.912416839599615 6.260000228881836
    vertex 62.569541931152344 42.9124168395996 6.260000228881836
  endloop
endfacet
facet normal 9.549220833977185e-16 1.0 -5.786403852889099e-16
  outer loop
    vertex 62.569541931152344 42.9124168395996 6.260000228881836
    vertex 54.56954193115234 42.912416839599615 6.260000228881836
    vertex 54.56954193115234 42.912416839599615 15.999999999999998
  endloop
endfacet
facet normal 9.549220833977185e-16 1.0 -5.786403852889099e-16
  outer loop
    vertex 62.569541931152344 42.9124168395996 6.260000228881836
    vertex 54.56954193115234 42.912416839599615 15.999999999999998
    vertex 62.569541931152344 42.912416839599615 15.999999999999998
  endloop
endfacet
facet normal 0.0 -1.0 0.0
  outer loop
    vertex 62.569541931152344 62.21241912841797 6.260000228881836
    vertex 55.56954193115233 62.21241912841797 5.260000228881835
    vertex 61.569541931152344 62.21241912841797 5.260000228881835
  endloop
endfacet
facet normal 0.0 -1.0 0.0
  outer loop
    vertex 55.56954193115233 62.21241912841797 5.260000228881835
    vertex 62.569541931152344 62.21241912841797 6.260000228881836
    vertex 54.56954193115234 62.21241912841797 6.260000228881836
  endloop
endfacet
facet normal 0.0 -1.0 0.0
  outer loop
    vertex 54.56954193115234 62.21241912841797 6.260000228881836
    vertex 62.569541931152344 62.21241912841797 6.260000228881836
    vertex 62.569541931152344 62.21241912841797 15.999999999999998
  endloop
endfacet
facet normal 0.0 -1.0 0.0
  outer loop
    vertex 54.56954193115234 62.21241912841797 6.260000228881836
    vertex 62.569541931152344 62.21241912841797 15.999999999999998
    vertex 54.56954193115234 62.21241912841797 15.999999999999998
  endloop
endfacet
facet normal 1.0 0.0 0.0
  outer loop
    vertex 27.649539947509787 63.21241912841797 -1.9999999999999996
    vertex 27.649539947509787 41.912416839599594 15.999999999999996
    vertex 27.649539947509787 41.912416839599594 -1.9999999999999996
  endloop
endfacet
facet normal 1.0 0.0 0.0
  outer loop
    vertex 27.649539947509787 41.912416839599594 15.999999999999996
    vertex 27.649539947509787 63.21241912841797 -1.9999999999999996
    vertex 27.649539947509787 63.21241912841797 15.999999999999993
  endloop
endfacet
facet normal 1.0 0.0 0.0
  outer loop
    vertex 27.649539947509787 63.21241912841797 15.999999999999993
    vertex 27.649539947509787 63.21241912841797 -1.9999999999999996
    vertex 27.649539947509787 63.21241912841797 1.0000000000000002
  endloop
endfacet
facet normal 0.707106781186548 -2.4730489517675523e-17 -0.707106781186547
  outer loop
    vertex 61.569541931152344 63.21241912841796 5.260000228881835
    vertex 62.569541931152344 62.21241912841797 6.260000228881836
    vertex 61.569541931152344 62.21241912841797 5.260000228881835
  endloop
endfacet
facet normal 0.707106781186548 -2.4730489517675523e-17 -0.707106781186547
  outer loop
    vertex 62.569541931152344 62.21241912841797 6.260000228881836
    vertex 61.569541931152344 63.21241912841796 5.260000228881835
    vertex 62.569541931152344 63.21241912841796 6.260000228881836
  endloop
endfacet
facet normal -0.7071067811865482 0.0 -0.7071067811865468
  outer loop
    vertex 54.56954193115234 42.912416839599615 6.260000228881836
    vertex 55.56954193115233 41.912416839599615 5.260000228881835
    vertex 54.56954193115234 41.912416839599615 6.260000228881836
  endloop
endfacet
facet normal -0.7071067811865482 0.0 -0.7071067811865468
  outer loop
    vertex 55.56954193115233 41.912416839599615 5.260000228881835
    vertex 54.56954193115234 42.912416839599615 6.260000228881836
    vertex 55.56954193115233 42.912416839599615 5.260000228881835
  endloop
endfacet
facet normal -0.707106781186548 0.0 -0.707106781186547
  outer loop
    vertex 54.56954193115234 63.21241912841796 6.260000228881836
    vertex 55.56954193115233 62.21241912841797 5.260000228881835
    vertex 54.56954193115234 62.21241912841797 6.260000228881836
  endloop
endfacet
facet normal -0.707106781186548 0.0 -0.707106781186547
  outer loop
    vertex 55.56954193115233 62.21241912841797 5.260000228881835
    vertex 54.56954193115234 63.21241912841796 6.260000228881836
    vertex 55.56954193115233 63.21241912841796 5.260000228881835
  endloop
endfacet
facet normal 0.7071067811865482 0.0 -0.7071067811865469
  outer loop
    vertex 61.569541931152344 42.9124168395996 5.260000228881835
    vertex 62.569541931152344 41.9124168395996 6.260000228881836
    vertex 61.569541931152344 41.9124168395996 5.260000228881835
  endloop
endfacet
facet normal 0.7071067811865482 0.0 -0.7071067811865469
  outer loop
    vertex 62.569541931152344 41.9124168395996 6.260000228881836
    vertex 61.569541931152344 42.9124168395996 5.260000228881835
    vertex 62.569541931152344 42.9124168395996 6.260000228881836
  endloop
endfacet
facet normal 6.431447970522595e-17 5.499921988363022e-17 1.0
  outer loop
    vertex 72.14954376220703 39.01241683959962 18.0
    vertex 25.64953994750979 66.11241912841794 18.0
    vertex 25.64953994750979 39.01241683959962 18.000000000000007
  endloop
endfacet
facet normal 6.431447970522595e-17 5.499921988363022e-17 1.0
  outer loop
    vertex 25.64953994750979 66.11241912841794 18.0
    vertex 72.14954376220703 39.01241683959962 18.0
    vertex 67.64954376220703 41.9124168395996 18.0
  endloop
endfacet
facet normal 6.431447970522595e-17 5.499921988363022e-17 1.0
  outer loop
    vertex 67.64954376220703 41.9124168395996 18.0
    vertex 72.14954376220703 39.01241683959962 18.0
    vertex 72.14954376220703 41.9124168395996 18.0
  endloop
endfacet
facet normal 6.431447970522595e-17 5.499921988363022e-17 1.0
  outer loop
    vertex 25.64953994750979 66.11241912841794 18.0
    vertex 67.64954376220703 63.21241912841797 18.0
    vertex 72.14954376220703 66.11241912841794 18.0
  endloop
endfacet
facet normal 6.431447970522595e-17 5.499921988363022e-17 1.0
  outer loop
    vertex 67.64954376220703 63.21241912841797 18.0
    vertex 25.64953994750979 66.11241912841794 18.0
    vertex 67.64954376220703 41.9124168395996 18.0
  endloop
endfacet
facet normal 6.431447970522595e-17 5.499921988363022e-17 1.0
  outer loop
    vertex 72.14954376220703 66.11241912841794 18.0
    vertex 67.64954376220703 63.21241912841797 18.0
    vertex 72.14954376220703 63.21241912841797 18.0
  endloop
endfacet
facet normal 2.430827072721518e-16 -1.0 6.806876734571036e-16
  outer loop
    vertex 85.64954376220703 63.21241912841797 0.0
    vertex 30.54953994750977 63.21241912841797 -1.9999999999999996
    vertex 85.64954376220703 63.21241912841797 -1.9999999999999996
  endloop
endfacet
facet normal 2.430827072721518e-16 -1.0 6.806876734571036e-16
  outer loop
    vertex 30.54953994750977 63.21241912841797 -1.9999999999999996
    vertex 85.64954376220703 63.21241912841797 0.0
    vertex 30.54953994750977 63.21241912841797 1.0000000000000002
  endloop
endfacet
facet normal 2.430827072721518e-16 -1.0 6.806876734571036e-16
  outer loop
    vertex 88.64954376220702 63.212419128418006 18.000000000000004
    vertex 85.64954376220703 63.21241912841797 0.0
    vertex 88.64954376220702 63.21241912841797 0.0
  endloop
endfacet
facet normal 2.430827072721518e-16 -1.0 6.806876734571036e-16
  outer loop
    vertex 85.64954376220703 63.21241912841797 0.0
    vertex 88.64954376220702 63.212419128418006 18.000000000000004
    vertex 80.39954376220703 63.21241912841799 10.666666666666671
  endloop
endfacet
facet normal 2.430827072721518e-16 -1.0 6.806876734571036e-16
  outer loop
    vertex 85.64954376220703 63.21241912841797 0.0
    vertex 80.39954376220703 63.21241912841799 10.666666666666671
    vertex 61.569541931152344 63.21241912841796 5.260000228881835
  endloop
endfacet
facet normal 2.430827072721518e-16 -1.0 6.806876734571036e-16
  outer loop
    vertex 85.64954376220703 63.21241912841797 0.0
    vertex 61.569541931152344 63.21241912841796 5.260000228881835
    vertex 30.54953994750977 63.21241912841797 1.0000000000000002
  endloop
endfacet
facet normal 2.430827072721518e-16 -1.0 6.806876734571036e-16
  outer loop
    vertex 30.54953994750977 63.21241912841797 1.0000000000000002
    vertex 61.569541931152344 63.21241912841796 5.260000228881835
    vertex 27.649539947509787 63.21241912841797 1.0000000000000002
  endloop
endfacet
facet normal 2.430827072721518e-16 -1.0 6.806876734571036e-16
  outer loop
    vertex 61.569541931152344 63.21241912841796 5.260000228881835
    vertex 80.39954376220703 63.21241912841799 10.666666666666671
    vertex 62.569541931152344 63.21241912841796 6.260000228881836
  endloop
endfacet
facet normal 2.430827072721518e-16 -1.0 6.806876734571036e-16
  outer loop
    vertex 80.39954376220703 63.21241912841799 10.666666666666671
    vertex 88.64954376220702 63.212419128418006 18.000000000000004
    vertex 84.52454376220703 63.21241912841799 18.000000000000004
  endloop
endfacet
facet normal 2.430827072721518e-16 -1.0 6.806876734571036e-16
  outer loop
    vertex 72.14954376220703 63.21241912841797 18.0
    vertex 67.64954376220703 63.21241912841799 15.999999999999991
    vertex 80.39954376220703 63.21241912841799 10.666666666666671
  endloop
endfacet
facet normal 2.430827072721518e-16 -1.0 6.806876734571036e-16
  outer loop
    vertex 67.64954376220703 63.21241912841799 15.999999999999991
    vertex 72.14954376220703 63.21241912841797 18.0
    vertex 67.64954376220703 63.21241912841797 18.0
  endloop
endfacet
facet normal 2.430827072721518e-16 -1.0 6.806876734571036e-16
  outer loop
    vertex 80.39954376220703 63.21241912841799 10.666666666666671
    vertex 62.569541931152344 63.21241912841797 15.999999999999998
    vertex 62.569541931152344 63.21241912841796 6.260000228881836
  endloop
endfacet
facet normal 2.430827072721518e-16 -1.0 6.806876734571036e-16
  outer loop
    vertex 62.569541931152344 63.21241912841797 15.999999999999998
    vertex 80.39954376220703 63.21241912841799 10.666666666666671
    vertex 67.64954376220703 63.21241912841799 15.999999999999991
  endloop
endfacet
facet normal 2.430827072721518e-16 -1.0 6.806876734571036e-16
  outer loop
    vertex 27.649539947509787 63.21241912841797 1.0000000000000002
    vertex 55.56954193115233 63.21241912841796 5.260000228881835
    vertex 27.649539947509787 63.21241912841797 15.999999999999993
  endloop
endfacet
facet normal 2.430827072721518e-16 -1.0 6.806876734571036e-16
  outer loop
    vertex 55.56954193115233 63.21241912841796 5.260000228881835
    vertex 27.649539947509787 63.21241912841797 1.0000000000000002
    vertex 61.569541931152344 63.21241912841796 5.260000228881835
  endloop
endfacet
facet normal 2.430827072721518e-16 -1.0 6.806876734571036e-16
  outer loop
    vertex 27.649539947509787 63.21241912841797 15.999999999999993
    vertex 55.56954193115233 63.21241912841796 5.260000228881835
    vertex 54.56954193115234 63.21241912841796 6.260000228881836
  endloop
endfacet
facet normal 2.430827072721518e-16 -1.0 6.806876734571036e-16
  outer loop
    vertex 27.649539947509787 63.21241912841797 15.999999999999993
    vertex 54.56954193115234 63.21241912841796 6.260000228881836
    vertex 54.56954193115234 63.21241912841797 15.999999999999998
  endloop
endfacet
endsolid Untitled-63950de1
